# AST/ASF file generated using VICON BodyLanguage
# -----------------------------------------------
:version 1.10
:name VICON
:units
  mass 1.0
  length 0.45
  angle deg
:documentation
   .ast/.asf automatically generated from VICON data using
   VICON BodyBuilder and BodyLanguage model FoxedUp or BRILLIANT.MOD
:root
   order TX TY TZ RX RY RZ
   axis XYZ
   position 0 0 0  
   orientation 0 0 0 
:bonedata
  begin
     id 1 
     name lhipjoint
     direction 0.528046 -0.759594 0.379717 
     length 2.39752 
     axis 0 0 0  XYZ
  end
  begin
     id 2 
     name lfemur
     direction 0.34202 -0.939693 0  
     length 7.31175  
     axis 0 0 20  XYZ
    dof rx ry rz
    limits (-160.0 20.0)
           (-70.0 70.0)
           (-60.0 70.0)
  end
  begin
     id 3 
     name ltibia
     direction 0.34202 -0.939693 0   
     length 7.52482   
     axis 0 0 20   XYZ
    dof rx
    limits (-10.0 170.0)
  end
  begin
     id 4 
     name lfoot
     direction 0.0675379 -0.185559 0.980309   
     length 2.00961   
     axis -90 7.62852e-016 20   XYZ
    dof rx rz
    limits (-45.0 90.0)
           (-70.0 20.0)
  end
  begin
     id 5 
     name ltoes
     direction 1.5352e-011 -4.22286e-011 1   
     length 1.01383   
     axis -90 7.62852e-016 20   XYZ
    dof rx
    limits (-90.0 20.0)
  end
  begin
     id 6 
     name rhipjoint
     direction -0.510274 -0.769251 0.384544   
     length 2.36742  
     axis 0 0 0  XYZ 
  end
  begin
     id 7 
     name rfemur
     direction -0.34202 -0.939693 0   
     length 7.45325   
     axis 0 0 -20   XYZ
    dof rx ry rz
    limits (-160.0 20.0)
           (-70.0 70.0)
           (-70.0 60.0)
  end
  begin
     id 8 
     name rtibia
     direction -0.34202 -0.939693 0   
     length 7.49587   
     axis 0 0 -20   XYZ
    dof rx
    limits (-10.0 170.0)
 end
 begin
     id 9 
     name rfoot
     direction -0.106475 -0.292536 0.950308   
     length 2.20898  
     axis -90 -7.62852e-016 -20   XYZ
    dof rx rz
    limits (-45.0 90.0)
           (-20.0 70.0)
  end
  begin
     id 10 
     name rtoes
     direction -1.53597e-011 -4.22023e-011 1   
     length 1.10065   
     axis -90 -7.62852e-016 -20   XYZ
    dof rx
    limits (-90.0 20.0)
  end
  begin
     id 11 
     name lowerback
     direction 0.0260024 0.998026 -0.0571652   
     length 2.11214   
     axis 0 0 0   XYZ
    dof rx ry rz
    limits (-20.0 45.0)
           (-30.0 30.0)
           (-30.0 30.0)
  end
  begin
     id 12 
     name upperback
     direction 0.0216202 0.999542 -0.0211766   
     length 2.11689   
     axis 0 0 0   XYZ
    dof rx ry rz
    limits (-20.0 45.0)
           (-30.0 30.0)
           (-30.0 30.0)
  end
  begin
     id 13 
     name thorax
     direction 0.00883312 0.999944 0.00589057   
     length 2.11821   
     axis 0 0 0   XYZ
    dof rx ry rz
    limits (-20.0 45.0)
           (-30.0 30.0)
           (-30.0 30.0)
  end
  begin
     id 14 
     name lowerneck
     direction -0.059386 0.994433 0.0870401   
     length 1.81176   
     axis 0 0 0   XYZ
    dof rx ry rz
    limits (-20.0 45.0)
           (-30.0 30.0)
           (-30.0 30.0)
  end
  begin
     id 15 
     name upperneck
     direction 0.0506457 0.97328 -0.223967   
     length 1.82382   
     axis 0 0 0   XYZ
    dof rx ry rz
    limits (-20.0 45.0)
           (-30.0 30.0)
           (-30.0 30.0)
  end
  begin
     id 16
     name head
     direction 0.0205902 0.996147 -0.0852487  
     length 1.84805  
     axis 0 0 0   XYZ
    dof rx ry rz
    limits (-20.0 45.0)
           (-30.0 30.0)
           (-30.0 30.0)
  end
  begin
     id 17 
     name lclavicle
     direction 0.949493 0.303881 -0.0782325  
     length 3.60584  
     axis 0 0 0   XYZ
    dof ry rz
    limits (-20.0 10.0)
           (0.0 20.0)
  end
  begin
     id 18 
     name lhumerus
     direction 1 -4.48965e-011 1.48782e-027   
     length 4.95681   
     axis 180 -30 -90   XYZ
    dof rx ry rz
    limits (-60.0 90.0)
           (-90.0 90.0)
           (-90.0 90.0)
  end
  begin
     id 19
     name lradius
     direction 1 -4.48952e-011 2.06528e-027   
     length 3.40915   
     axis 180 -30 -90   XYZ
    dof rx
    limits (-10.0 170.0)
  end
  begin
     id 20
     name lwrist
     direction 1 -4.48964e-011 1.28021e-027   
     length 1.70457   
     axis -1.61767e-015 90 90   XYZ
    dof ry
    limits (-180.0 0.0)
 end
  begin
     id 21 
     name lhand
     direction 1 -4.49094e-011 2.54887e-027   
     length 0.616403   
     axis -1.63363e-015 90 90   XYZ
    dof rx rz
    limits (-90.0 90.0)
           (-45.0 45.0)
  end
  begin
     id 22 
     name lfingers
     direction 1 -4.49002e-011 5.11407e-027   
     length 0.49696   
     axis -3.26723e-015 90 90   XYZ
    dof rx
    limits (0.0 90.0)
  end
  begin
     id 23
     name lthumb
     direction 0.707107 -6.34998e-011 0.707107   
     length 0.713539   
     axis -90 45 -2.25915e-014   XYZ
    dof rx rz
    limits (-45.0 45.0)
           (-45.0 45.0)
  end
  begin
     id 24 
     name rclavicle
     direction -0.937751 0.334612 -0.0930482   
     length 3.46287  
     axis 0 0 0   XYZ 
    dof ry rz
    limits (-10.0 20.0)
           (-20.0 0.0)
  end
  begin
     id 25 
     name rhumerus
     direction -1 -4.48962e-011 3.59972e-027  
     length 5.352   
     axis 180 30 90   XYZ
    dof rx ry rz
    limits (-90.0 60.0)
           (-90.0 90.0)
           (-90.0 90.0)
  end
  begin
     id 26 
     name rradius
     direction -1 -4.48987e-011 -3.76925e-027   
     length 3.43721   
     axis 180 30 90   XYZ
    dof rx
    limits (-10.0 170.0)
  end
  begin
     id 27 
     name rwrist
     direction -1 -4.48943e-011 1.28112e-027   
     length 1.7186   
     axis -1.61767e-015 -90 -90   XYZ
    dof ry
    limits (-180.0 0.0)
  end
  begin
     id 28
     name rhand
     direction -1 -4.49027e-011 2.55483e-027   
     length 0.72009   
     axis -1.63363e-015 -90 -90   XYZ
    dof rx rz
    limits (-90.0 90.0)
           (-45.0 45.0)
  end
  begin
     id 29
     name rfingers
     direction -1 -4.48827e-011 5.14506e-027   
     length 0.580555   
     axis -3.26723e-015 -90 -90   XYZ
    dof rx
    limits (0.0 90.0)
  end
  begin
     id 30
     name rthumb
     direction -0.707107 -6.34936e-011 0.707107   
     length 0.833564   
     axis -90 -45 2.25915e-014   XYZ
    dof rx rz
    limits (-45.0 45.0)
           (-45.0 45.0)
  end
:hierarchy
  begin
    root lhipjoint rhipjoint lowerback
    lhipjoint lfemur
    lfemur ltibia
    ltibia lfoot
    lfoot ltoes
    rhipjoint rfemur
    rfemur rtibia
    rtibia rfoot
    rfoot rtoes
    lowerback upperback
    upperback thorax
    thorax lowerneck lclavicle rclavicle
    lowerneck upperneck
    upperneck head
    lclavicle lhumerus
    lhumerus lradius
    lradius lwrist
    lwrist lhand lthumb
    lhand lfingers
    rclavicle rhumerus
    rhumerus rradius
    rradius rwrist
    rwrist rhand rthumb
    rhand rfingers
  end

#!OML:ASF H:\Terrain\Patient Classification 1\Terrain2\Thursday\justin.ASF
:FULLY-SPECIFIED
:DEGREES
630
root 19.2044 23.724 18.1137 2.83825 -44.6705 -2.84839
lowerback 6.39807 0.930299 3.18153
upperback 3.35174 1.3775 2.52028
thorax -0.116732 0.683253 0.720043
lowerneck -10.1237 -1.71864 -8.59315
upperneck 42.7189 -3.14755 4.12568
head 17.7304 -2.45833 2.83717
rclavicle -1.15991e-013 7.95139e-016
rhumerus -31.3719 -6.69808 -82.1084
rradius 47.1107
rwrist -12.9641
rhand -16.7845 14.7682
rfingers 7.12502
rthumb 9.4433 -15.0003
lclavicle -1.15991e-013 7.95139e-016
lhumerus -34.8197 5.19429 72.6216
lradius 42.8445
lwrist 8.16169
lhand -25.1037 22.8011
lfingers 7.12502
lthumb 1.41145 52.7762
rfemur -15.0288 -14.1186 28.2288
rtibia 40.6652
rfoot -23.2715 -2.44565
rtoes 16.1032
lfemur -19.1797 8.04243 -15.9155
ltibia 41.7902
lfoot -17.5983 9.65168
ltoes -9.27495
631
root 19.198 23.7223 18.1362 3.01367 -45.2864 -3.16606
lowerback 6.44157 0.572327 3.08163
upperback 3.28791 0.89982 2.94476
thorax -0.219719 0.436846 1.24216
lowerneck -10.0416 -1.4666 -9.3212
upperneck 42.6099 -2.52926 4.00403
head 17.5995 -2.34749 3.0119
rclavicle -7.67309e-014 2.38542e-014
rhumerus -31.1117 -5.45702 -81.9925
rradius 46.9781
rwrist -13.0224
rhand -16.9362 14.1553
rfingers 7.12502
rthumb 9.29695 -15.6197
lclavicle -7.67309e-014 2.38542e-014
lhumerus -35.6091 6.29607 72.8707
lradius 43.0243
lwrist 8.48254
lhand -25.1735 23.0778
lfingers 7.12502
lthumb 1.34397 53.0533
rfemur -14.426 -13.5699 28.3206
rtibia 40.021
rfoot -23.4774 -2.30299
rtoes 15.7087
lfemur -19.1183 7.9686 -15.6295
ltibia 42.2549
lfoot -17.6276 10.0313
ltoes -10.4519
632
root 19.1945 23.722 18.159 3.29048 -46.0027 -3.56704
lowerback 6.49195 0.266636 2.98038
upperback 3.21419 0.491789 3.42063
thorax -0.328403 0.224598 1.81609
lowerneck -9.98695 -1.22723 -10.0059
upperneck 42.4906 -1.91516 3.81625
head 17.4671 -2.23677 3.14495
rclavicle 7.89175e-014 -7.95139e-016
rhumerus -30.7846 -4.56616 -81.6921
rradius 46.6855
rwrist -12.7893
rhand -17 14.1118
rfingers 7.12502
rthumb 9.23538 -15.666
lclavicle 7.89175e-014 -7.95139e-016
lhumerus -36.3156 7.38548 73.1477
lradius 43.094
lwrist 8.62651
lhand -25.0146 22.994
lfingers 7.12502
lthumb 1.49747 52.9685
rfemur -13.8963 -12.9524 28.4988
rtibia 39.4257
rfoot -23.5667 -2.18325
rtoes 16.1872
lfemur -19.1153 7.81948 -15.2496
ltibia 42.7235
lfoot -17.6807 10.2434
ltoes -10.3577
633
root 19.1896 23.7195 18.1776 3.54167 -46.6827 -3.91127
lowerback 6.55588 0.303681 3.17771
upperback 3.18454 0.555877 3.44148
thorax -0.3929 0.257185 1.72245
lowerneck -9.85064 -1.28218 -9.7866
upperneck 42.1829 -2.0614 3.77702
head 17.2606 -2.25751 3.05203
rclavicle 3.81667e-014 -1.35174e-014
rhumerus -30.7735 -4.83645 -81.6451
rradius 46.7136
rwrist -12.533
rhand -17.1215 14.1736
rfingers 7.12502
rthumb 9.11806 -15.6093
lclavicle 3.81667e-014 -1.35174e-014
lhumerus -36.3633 7.10517 73.3051
lradius 43.0624
lwrist 8.86809
lhand -25.0669 22.4496
lfingers 7.12502
lthumb 1.44695 52.4245
rfemur -13.5161 -12.4965 28.6471
rtibia 38.9021
rfoot -23.5502 -1.82269
rtoes 16.9398
lfemur -19.1334 7.56228 -14.9086
ltibia 43.1439
lfoot -17.6897 10.4376
ltoes -10.0177
634
root 19.184 23.7189 18.1928 3.73861 -47.3176 -4.17198
lowerback 6.59654 0.156246 3.13634
upperback 3.19323 0.357272 3.59728
thorax -0.406082 0.15481 1.92018
lowerneck -9.78071 -1.14587 -9.82614
upperneck 41.8378 -1.80076 3.66644
head 17.0163 -2.16157 3.03973
rclavicle 3.3197e-014 1.51076e-014
rhumerus -30.6567 -4.02069 -81.6811
rradius 46.7877
rwrist -12.6903
rhand -17.2209 14.1909
rfingers 7.12502
rthumb 9.0222 -15.5962
lclavicle 3.3197e-014 1.51076e-014
lhumerus -36.6624 7.56259 73.485
lradius 43.1973
lwrist 9.1948
lhand -25.5003 21.9222
lfingers 7.12502
lthumb 1.02834 51.8995
rfemur -13.2163 -12.1795 28.7344
rtibia 38.3788
rfoot -23.2869 -1.50777
rtoes 15.9935
lfemur -19.2046 6.7752 -14.5518
ltibia 43.7142
lfoot -18.0855 10.2807
ltoes -5.89176
635
root 19.1868 23.7187 18.2052 4.23814 -48.029 -4.90934
lowerback 6.79727 0.450231 3.8746
upperback 3.17214 0.802287 3.41979
thorax -0.52935 0.383598 1.29169
lowerneck -9.6879 -1.48066 -9.31881
upperneck 41.6713 -2.56864 3.90965
head 16.9645 -2.36115 2.9284
rclavicle -3.43897e-014 4.77083e-015
rhumerus -30.7265 -5.18759 -81.6719
rradius 46.7496
rwrist -12.5469
rhand -17.2081 14.3463
rfingers 7.12502
rthumb 9.03456 -15.4402
lclavicle -3.43897e-014 4.77083e-015
lhumerus -36.3307 6.45925 73.7172
lradius 43.1711
lwrist 9.39834
lhand -25.833 21.9413
lfingers 7.12502
lthumb 0.707049 51.9199
rfemur -12.8293 -11.4827 29.1889
rtibia 37.8439
rfoot -22.7775 -1.55822
rtoes 14.4692
lfemur -19.2593 5.06276 -13.5868
ltibia 44.4077
lfoot -19.5448 8.38164
ltoes 11.5463
636
root 19.1917 23.7214 18.2123 5.3347 -48.6473 -6.28862
lowerback 6.99838 0.514924 4.71347
upperback 3.07213 0.955783 3.68713
thorax -0.730914 0.458853 1.0864
lowerneck -9.72881 -1.66522 -9.38551
upperneck 41.6613 -2.8736 3.97167
head 17.0049 -2.49272 2.91669
rclavicle 3.61788e-014 -5.00937e-014
rhumerus -30.8111 -5.44095 -81.4321
rradius 46.8694
rwrist -12.5973
rhand -17.4638 14.4832
rfingers 7.12502
rthumb 8.78781 -15.3138
lclavicle 3.61788e-014 -5.00937e-014
lhumerus -36.38 6.378 74.1102
lradius 43.1353
lwrist 9.33657
lhand -25.7009 22.3416
lfingers 7.12502
lthumb 0.834628 52.3197
rfemur -12.5558 -10.7444 30.1931
rtibia 37.3063
rfoot -22.4291 -1.83448
rtoes 13.5191
lfemur -19.704 6.22837 -12.6362
ltibia 45.343
lfoot -17.8684 9.61407
ltoes -5.93552
637
root 19.1954 23.7257 18.2247 6.58771 -49.1459 -7.70235
lowerback 7.01266 0.416416 5.50216
upperback 2.96655 0.878996 4.02528
thorax -0.839043 0.417576 1.00216
lowerneck -9.71377 -1.6944 -9.44589
upperneck 41.56 -2.84997 3.80577
head 16.9417 -2.51585 2.85104
rclavicle -4.39314e-014 3.4191e-014
rhumerus -30.8972 -5.00404 -81.3149
rradius 46.9728
rwrist -12.6253
rhand -17.9766 14.8451
rfingers 7.12502
rthumb 8.29291 -14.9721
lclavicle -4.39314e-014 3.4191e-014
lhumerus -36.5689 6.73802 74.4292
lradius 43.1057
lwrist 9.33908
lhand -25.4525 22.2425
lfingers 7.12502
lthumb 1.07458 52.2195
rfemur -12.4468 -10.3562 31.1812
rtibia 36.8042
rfoot -22.3682 -1.76692
rtoes 13.5161
lfemur -20.3648 6.69577 -11.5798
ltibia 46.3313
lfoot -16.8279 10.0348
ltoes -15.878
638
root 19.1965 23.7304 18.2431 7.46455 -49.6619 -8.74827
lowerback 6.97039 0.406042 6.33511
upperback 2.96648 0.909504 4.07896
thorax -0.798694 0.436307 0.593362
lowerneck -9.70835 -1.82916 -9.37554
upperneck 41.4821 -3.12321 3.88349
head 16.9234 -2.60933 2.82512
rclavicle -4.7112e-014 1.66979e-014
rhumerus -30.8244 -5.17213 -81.3185
rradius 46.8171
rwrist -12.3064
rhand -18.0039 14.8991
rfingers 7.12502
rthumb 8.26654 -14.9192
lclavicle -4.7112e-014 1.66979e-014
lhumerus -36.4803 6.51623 74.6594
lradius 42.9676
lwrist 9.4
lhand -25.5825 21.7754
lfingers 7.12502
lthumb 0.948991 51.7531
rfemur -12.2284 -10.2408 31.7774
rtibia 36.3031
rfoot -22.1356 -1.30207
rtoes 13.2856
lfemur -20.8477 6.66331 -10.8007
ltibia 47.3541
lfoot -16.2331 10.4805
ltoes -21.683
639
root 19.1972 23.73 18.2595 8.13017 -50.1734 -9.592
lowerback 6.9333 0.488344 7.10898
upperback 3.02454 1.05449 4.01071
thorax -0.692895 0.516007 0.0845533
lowerneck -9.74021 -2.04874 -9.10925
upperneck 41.3831 -3.58981 4.00898
head 16.9167 -2.74252 2.75317
rclavicle -1.52468e-013 -2.38542e-014
rhumerus -30.6529 -5.86258 -81.2378
rradius 46.6334
rwrist -12.4564
rhand -17.3672 14.3969
rfingers 7.12502
rthumb 8.88105 -15.3962
lclavicle -1.52468e-013 -2.38542e-014
lhumerus -36.216 6.03606 74.8623
lradius 42.8712
lwrist 9.09994
lhand -25.0197 21.8591
lfingers 7.12502
lthumb 1.49253 51.8337
rfemur -12.0049 -10.2168 32.2019
rtibia 35.915
rfoot -21.8569 -0.612199
rtoes 14.1815
lfemur -21.1391 6.45212 -10.1464
ltibia 48.2212
lfoot -15.5225 10.7684
ltoes -25.7153
640
root 19.1965 23.7377 18.2716 8.45235 -50.811 -10.0217
lowerback 7.00451 0.573506 7.35646
upperback 3.0841 1.18245 3.99934
thorax -0.657133 0.582142 -0.0734271
lowerneck -9.79601 -2.18462 -8.9093
upperneck 41.2456 -3.87019 4.05816
head 16.8757 -2.81749 2.68827
rclavicle 1.69961e-014 -2.3059e-014
rhumerus -30.4983 -6.25786 -81.0543
rradius 46.4424
rwrist -12.7183
rhand -17.1619 14.3271
rfingers 7.12502
rthumb 9.07907 -15.4575
lclavicle 1.69961e-014 -2.3059e-014
lhumerus -35.9974 5.78169 75.1893
lradius 42.6907
lwrist 8.86177
lhand -24.5685 21.7252
lfingers 7.12502
lthumb 1.92833 51.6963
rfemur -11.7652 -9.91077 32.343
rtibia 35.6993
rfoot -21.9003 0.00521075
rtoes 16.9397
lfemur -21.3505 6.03646 -9.67417
ltibia 48.9674
lfoot -14.9049 10.3715
ltoes -24.9831
